<svg id="Layer_1" data-name="Layer 1" xmlns="http://www.w3.org/2000/svg" viewBox="0 0 268.42 98.54"><defs><style>.cls-1{fill:#ffed00;}</style></defs><title>logo_dark</title><path id="Pfad_1976" data-name="Pfad 1976" d="M90.92,45.64h1.17c.6,0,1.21,0,1.83.07,4.93.3,8.09,3.78,8,9.56C101.89,62,98.11,65.44,91.74,65.4h-.82V45.64Zm-1.7,28.22,5.57,0c10.84-.11,18.08-7.15,18.13-18.63,0-10-5.71-16.6-14.69-17.86A44.86,44.86,0,0,0,93.32,37l-13.4,0,.25,4V67.39l-.25,6.49h9.3Z"/><path id="Pfad_1977" data-name="Pfad 1977" d="M90.92,45.64h1.17c.6,0,1.21,0,1.83.07,4.93.3,8.09,3.78,8,9.56C101.89,62,98.11,65.44,91.74,65.4h-.82V45.64Zm-1.7,28.22,5.57,0c10.84-.11,18.08-7.15,18.13-18.63,0-10-5.71-16.6-14.69-17.86A44.86,44.86,0,0,0,93.32,37l-13.4,0,.25,4V67.39l-.25,6.49h9.3Z"/><path id="Pfad_1978" data-name="Pfad 1978" d="M125.19,74l.3-6.88V40.55l-.3-3.51h22.25v8.61h-12V51H146v8.6h-10.5v5.82h12.42V74Z"/><path id="Pfad_1979" data-name="Pfad 1979" d="M164.61,74l.18-5.48V44.1l-.18-7h11.1l-.26,6.44V65.45h11.78V74Z"/><path id="Pfad_1980" data-name="Pfad 1980" d="M196.54,45.65V37h26.24v8.55h-7.84V74.06H204.26V45.65Z"/><path id="Pfad_1981" data-name="Pfad 1981" d="M249.56,48.09,253,59.69h-6.81Zm-7.38,26,2-6.51h11.28l2,6.58h11L254.76,37.07h-9.88l-13.73,37h11Z"/><g id="Gruppe_661" data-name="Gruppe 661"><path id="Pfad_1982" data-name="Pfad 1982" class="cls-1" d="M3.59,10.69C2.67,9.63,3.11,8.51,4,9.15c4.56,2.36,10,2.41,15.47,1,1.1-.46,1.51.16.6,1-2.84,1.76-11,5.47-16.43-.39Zm5.87,7.06c-.78-.37-1.42-1.86.14-1.31,4.31.43,8.53.43,12.84-1.47.73-.46,1.49,0,.85.71C20.46,18.87,12.44,21,9.46,17.74Zm8,4a24.61,24.61,0,0,0,8.71-2.22c.94-.65,1.35.11.71.8-1.12,1.33-5.66,4.79-8.92,3.09-1.33-.6-2.22-1.72-.5-1.67ZM19,40.21c-.83-.37-1.1-1.15.36-1,5.62-.6,11.14-4.12,14.93-6.37.87-.6,1.35-.11.64.8-3.71,3.19-8.71,9.72-15.93,6.56Zm5.82,4.38c-.64-.21-.76-.74.16-1.13a32.84,32.84,0,0,0,10.43-5.89c.41-.55,1.19-.18.85.53-1.63,2.36-7.06,8-11.44,6.49Zm7.88,1.85c-1.23-.09-1.65-.45-.89-1,2.87-1.4,3.8-2.59,6.19-4.75.73-.87,1.15-.07.8.55-.53,1.42-3.32,5.57-6.1,5.18Zm9.84-4.17a6.07,6.07,0,0,1-2.18,4.31c-1,.87-3.16.6-1.93-.55a9.72,9.72,0,0,0,3.19-4C42.05,41.33,42.6,41.38,42.56,42.27ZM28.89,5.8c-4.05-.2-8.68,1.47-15.24,1.84C8.79,7.84,3.13,6.19.34,2-.21,1.22-.1.62.77,1.22c9.67,5.55,19.14.5,27.71.5C34.76,1.51,40,5.27,43.54,10c2.8,3.48,4.52,6.53,8.07,9.67,1.37,1,.41,1.56-.64.69C43.08,15.84,39.71,6.29,28.89,5.8ZM52.41,49.54c-1.44-1.79-1.14-5.09.21-6.79.48-.92,1-.73,1.07.09a23.31,23.31,0,0,0,1.45,5c1.42,1.84-.92,3.79-2.73,1.7Zm8.8,2.4c-1.33-.52-2.77.71-3,2.5-.3,1.54-3.53,1.24-2.66-1.37,1.33-2.91,4.1-3.53,5.57-2.43,1.06.8.62,1.56.1,1.3ZM58.35,41.58c.5-.91,1-.87,1.1.1a17.33,17.33,0,0,0,1.21,5c.94,1.83-.71,3.37-2.54,1.62a5.48,5.48,0,0,1,.23-6.71Zm9.7,9.79c-1.56-.8-2.62.28-3.21,2.16-.64,1.51-3.33.3-2.39-1.56,1.77-3.1,4-3.28,5.8-1.72.71.78.32,1.4-.2,1.12Zm3.2-20.81c-.52.53-.91,0-.52-.6a2.85,2.85,0,0,0,.32-2.84c-.92-2.18-3.9-2.5-4.79-3.72C65.07,21.87,63.71,20,62.16,20c-1.93,0-3.07,1.42-4.63-.14-.71-.6.27-.87.69-.8,1.6.05,2-1.37,4.51-1.28a4.52,4.52,0,0,1,4.1,2c1,1.17,1.7,2,2.45,2.75.94,1.38,2.25,1.58,3.08,3a3.45,3.45,0,0,1-.78,4.81l-.32.21ZM89.45,19c-1.67,1.51-4.21.46-5-.69-.71-.85-.18-1.72.46-1.17a6.52,6.52,0,0,0,4.22,1c.55-.27.85.32.27.9Zm3.65-4.68a4.64,4.64,0,0,1-6.4-.09c-.62-.48-.62-1.15.21-1.08a20.45,20.45,0,0,0,6,.1c1-.25.55.87.14,1.07ZM97,7.57a4.79,4.79,0,0,1-6.26,2.58,4.12,4.12,0,0,1-.66-.34c-1-.48-1-1.33.16-1.17a11.18,11.18,0,0,0,6-2c.35-.43,1,.21.74.92Zm-8.71-1.7c-8.35.07-11,6.76-15.06,11.53a12,12,0,0,1-2.7,2.43c-1,.55-1.58-.12-.67-.83a19.08,19.08,0,0,0,2.32-2.75C75.85,11,77.75,2.06,86.39,1.76c2.75-.09,6.9.85,11.23-1.56.78-.45,1.35-.18.71,1a12.21,12.21,0,0,1-10,4.7Z"/></g><g id="Gruppe_662" data-name="Gruppe 662"><path id="Pfad_1983" data-name="Pfad 1983" d="M171.28,85.29a6.26,6.26,0,0,0-2.38-.5,1.61,1.61,0,0,0-1.82,1.39,1.94,1.94,0,0,0,0,.24c0,2,5.14,1.17,5.14,5.09,0,2.57-2,3.53-4.38,3.53a9.84,9.84,0,0,1-3-.46l.2-2.11a5.58,5.58,0,0,0,2.64.71c.89,0,2.09-.45,2.09-1.51,0-2.22-5.14-1.3-5.14-5.18,0-2.61,2-3.57,4.08-3.57a8.84,8.84,0,0,1,2.8.41Z"/><path id="Pfad_1984" data-name="Pfad 1984" d="M182.4,94.35a5.86,5.86,0,0,1-3,.68c-2.84,0-4.52-1.64-4.52-4.47,0-2.5,1.33-4.56,4-4.56,3.21,0,4.1,2.2,4.1,5.2h-5.95a2.25,2.25,0,0,0,2.3,2.19h.15a5.91,5.91,0,0,0,2.86-.87Zm-1.52-4.68c-.07-1.08-.57-2-1.83-2a1.94,1.94,0,0,0-2,1.9.24.24,0,0,0,0,.12Z"/><path id="Pfad_1985" data-name="Pfad 1985" d="M191.79,88.07a3.42,3.42,0,0,0-1.51-.32c-1.4,0-2.27,1.1-2.27,2.72s.76,2.82,2.34,2.82a4.47,4.47,0,0,0,1.72-.41l.09,1.86a7.12,7.12,0,0,1-2.25.27c-2.82,0-4.26-1.92-4.26-4.56S187.12,86,189.82,86a7.29,7.29,0,0,1,2.18.28Z"/><path id="Pfad_1986" data-name="Pfad 1986" d="M202.84,94.83h-2.13V93.66h0A3.54,3.54,0,0,1,197.87,95c-2,0-2.94-1.44-2.94-3.39V86.21h2.25v4.61c0,1.05,0,2.47,1.47,2.47,1.62,0,2-1.76,2-2.86V86.21h2.24v8.62Z"/><path id="Pfad_1987" data-name="Pfad 1987" d="M206.49,86.21h2v2h0a2.48,2.48,0,0,1,3.05-2.09v2.27a2.32,2.32,0,0,0-1-.18c-1.83,0-1.83,2.27-1.83,3.51v3.16h-2.25V86.21Z"/><path id="Pfad_1988" data-name="Pfad 1988" d="M214.26,82.5h2.24v2.15h-2.24Zm0,3.71h2.24v8.62h-2.24Z"/><path id="Pfad_1989" data-name="Pfad 1989" d="M220.84,87.86h-1.65V86.21h1.65V84.49l2.24-.71v2.45h2v1.65h-2v4c0,.74.21,1.43,1.06,1.43a2.46,2.46,0,0,0,1-.23l.07,1.76a5.75,5.75,0,0,1-1.65.21,2.53,2.53,0,0,1-2.74-2.3,2.77,2.77,0,0,1,0-.5v-4.4Z"/><path id="Pfad_1990" data-name="Pfad 1990" d="M231.91,92.51h0l2.09-6.3h2.26l-3.23,8.55c-.71,1.9-1.24,3.78-3.57,3.78a6.11,6.11,0,0,1-1.59-.23l.16-1.65a3.44,3.44,0,0,0,1.15.16,1.41,1.41,0,0,0,1.47-1.35v-.18l-3.3-9.08h2.47Z"/><path id="Pfad_1991" data-name="Pfad 1991" d="M249.19,83.14h2.63l4.58,11.69h-2.59l-1-2.68h-4.74l-1,2.68H244.6Zm1.31,2.36h0l-1.7,4.81h3.42Z"/><path id="Pfad_1992" data-name="Pfad 1992" d="M267.92,85.41a7.57,7.57,0,0,0-3-.62,4,4,0,0,0-4.24,3.7,4.86,4.86,0,0,0,0,.54,3.84,3.84,0,0,0,3.5,4.16,3.53,3.53,0,0,0,.46,0,6.6,6.6,0,0,0,1.54-.16V90h-2.47V88.16h4.72v6.28a14.69,14.69,0,0,1-3.78.6c-3.79,0-6.42-1.9-6.42-5.85S260.68,83,264.65,83a11.7,11.7,0,0,1,3.43.48Z"/></g></svg>